<?xml version="1.0" standalone="no"?><!DOCTYPE svg PUBLIC "-//W3C//DTD SVG 1.1//EN" "http://www.w3.org/Graphics/SVG/1.1/DTD/svg11.dtd"><svg height="118" node-id="1" sillyvg="true" template-height="118" template-width="55" version="1.1" viewBox="0 0 55 118" width="55" xmlns="http://www.w3.org/2000/svg" xmlns:xlink="http://www.w3.org/1999/xlink"><defs node-id="13"><linearGradient gradientUnits="objectBoundingBox" id="linearGradient-1" node-id="5" spreadMethod="pad" x1="0.5" x2="0.5" y1="1" y2="0.0000000000000015363087"><stop offset="0" stop-color="#ffda92"></stop><stop offset="1" stop-color="#fff9e4"></stop></linearGradient></defs><g node-id="20"><path d="M 28.80 27.30 L 21.10 35.50 L 17.80 39.80 L 14.00 45.10 L 10.30 51.00 L 6.70 57.70 L 2.70 67.40 L 1.00 72.80 L 0.30 76.60 L 0.00 80.40 L 0.10 84.20 L 0.60 87.90 L 1.50 91.60 L 2.80 95.20 L 4.50 98.60 L 6.60 101.90 L 16.00 110.20 L 23.20 114.80 L 26.90 116.50 L 33.10 117.80 L 39.30 117.80 L 42.40 117.30 L 45.50 116.50 L 47.00 115.00 L 47.30 112.80 L 46.60 111.90 L 44.70 111.00 L 38.40 112.10 L 33.50 112.20 L 31.10 111.80 L 28.80 111.00 L 24.20 108.40 L 19.90 105.40 L 15.90 102.00 L 12.10 98.30 L 10.50 95.40 L 9.30 92.40 L 8.40 89.20 L 8.20 86.50 L 8.40 83.70 L 36.20 83.70 L 38.50 85.20 L 39.90 85.50 L 41.90 84.90 L 43.60 83.70 L 43.60 81.90 L 45.40 81.90 L 45.40 83.70 L 47.20 84.80 L 49.10 85.50 L 51.10 84.80 L 52.80 83.70 L 54.70 56.40 L 54.50 45.50 L 55.00 32.80 L 54.70 23.70 L 52.90 0.00 L 49.20 7.30 L 34.40 7.30 L 28.80 0.00 L 28.80 27.30 Z" fill="#fffcdd" fill-rule="evenodd" group-id="1" id="形状_815" node-id="10" stroke="none" target-height="117.8" target-width="55" target-x="0" target-y="0"></path><path d="M 48.10 6.50 L 48.70 17.30 L 48.70 38.90 L 47.60 53.40 L 45.60 60.40 L 42.10 66.80 L 39.80 69.60 L 34.40 74.60 L 16.00 83.70 L 41.20 86.00 L 42.10 85.80 L 42.60 85.10 L 43.50 81.50 L 44.70 81.20 L 45.80 81.50 L 45.80 83.70 L 46.10 84.50 L 47.30 85.70 L 48.10 86.00 L 50.50 85.10 L 52.70 83.70 L 55.00 36.10 L 52.70 2.00 L 50.40 2.00 L 50.40 6.50 L 48.10 6.50 Z" fill="url(#linearGradient-1)" fill-rule="evenodd" group-id="1" id="形状_816" node-id="11" stroke="none" target-height="84" target-width="39" target-x="16" target-y="2"></path></g></svg>